<svg xmlns="http://www.w3.org/2000/svg" width="65.434" height="90" viewBox="0 0 65.434 90"><defs><style>.a{fill:#ff7b00;}.b{fill:#0157ba;}</style></defs><g transform="translate(-1231.928 -830.953)"><g transform="translate(1233.484 911.497)"><rect class="a" width="62.32" height="7.259" transform="translate(0 0)"/></g><g transform="translate(1288.277 860.589)"><rect class="a" width="7.526" height="54.538" transform="translate(0 0)"/></g><g transform="translate(1231.928 840.171)"><path class="b" d="M618.374,635.7H563.819a5.452,5.452,0,0,1-5.44-5.451v-69.88a5.452,5.452,0,0,1,5.44-5.452h12.734a1.813,1.813,0,0,1,0,3.623H563.819a1.885,1.885,0,0,0-1.933,1.828v69.88a1.884,1.884,0,0,0,1.933,1.827h54.555a1.884,1.884,0,0,0,1.933-1.827v-69.88a1.885,1.885,0,0,0-1.933-1.828,1.813,1.813,0,0,1,0-3.623,5.451,5.451,0,0,1,5.439,5.452v69.88A5.451,5.451,0,0,1,618.374,635.7Z" transform="translate(-558.379 -554.915)"/></g><g transform="translate(1252.133 870.4)"><path class="b" d="M601.993,580.521H579.521a1.557,1.557,0,1,1,0-3.114h22.473a1.557,1.557,0,0,1,0,3.114Z" transform="translate(-577.963 -577.407)"/></g><g transform="translate(1252.133 883.182)"><path class="b" d="M601.993,594.4H579.521a1.557,1.557,0,1,1,0-3.114h22.473a1.557,1.557,0,1,1,0,3.114Z" transform="translate(-577.963 -591.29)"/></g><g transform="translate(1251.396 895.962)"><path class="b" d="M593.433,608.285H579.521a1.557,1.557,0,1,1,0-3.113h13.912a1.557,1.557,0,1,1,0,3.113Z" transform="translate(-577.963 -605.171)"/></g><g transform="translate(1239.455 859.424)"><path class="b" d="M616.342,618.416H569.6a1.705,1.705,0,0,1-1.822-1.557V566.342a1.705,1.705,0,0,1,1.822-1.557h46.738a1.705,1.705,0,0,1,1.823,1.557v50.517A1.705,1.705,0,0,1,616.342,618.416ZM571.426,615.3h43.095V567.9H571.426Z" transform="translate(-567.783 -564.785)"/></g><g transform="translate(1250.168 837.669)"><path class="b" d="M605.431,564.912h-27.5a1.557,1.557,0,0,1-1.557-1.557v-6.6a4.976,4.976,0,0,1,4.971-4.97h20.672a4.976,4.976,0,0,1,4.97,4.97v6.6A1.557,1.557,0,0,1,605.431,564.912ZM579.489,561.8h24.385V556.76a1.859,1.859,0,0,0-1.856-1.857H581.346a1.859,1.859,0,0,0-1.857,1.857Z" transform="translate(-576.375 -551.789)"/></g><g transform="translate(1256.66 830.953)"><path class="b" d="M600.517,553.228h-14.4a1.556,1.556,0,0,1-1.557-1.557V547.04a3.7,3.7,0,0,1,3.739-3.642h10.04a3.7,3.7,0,0,1,3.739,3.642v4.631A1.557,1.557,0,0,1,600.517,553.228Zm-12.847-3.114H598.96V547.04a.584.584,0,0,0-.625-.528h-10.04a.584.584,0,0,0-.625.528Z" transform="translate(-584.556 -543.398)"/></g></g></svg>