<svg xmlns="http://www.w3.org/2000/svg" xmlns:xlink="http://www.w3.org/1999/xlink" width="174.91" height="26.589" viewBox="0 0 174.91 26.589"><defs><style>.a{fill:none;}.b{fill:#68bc94;}.c{clip-path:url(#a);}.d{fill:#2779bf;}.e{fill:#57509c;}.f{fill:#d3006f;}</style><clipPath id="a"><rect class="a" width="174.91" height="26.589"/></clipPath></defs><g transform="translate(0 0)"><path class="b" d="M6.089,4.386v10.7h6.722v2.747H3.092V4.386Z" transform="translate(1.861 2.639)"/><g transform="translate(0 0)"><g class="c"><path class="b" d="M16.942,18.283c-4.3,0-7.262-2.672-7.262-7.05s2.958-7.05,7.262-7.05,7.262,2.67,7.262,7.05-2.958,7.05-7.262,7.05m0-11.412a4.221,4.221,0,0,0-4.323,4.361,4.161,4.161,0,0,0,4.323,4.34,4.139,4.139,0,0,0,4.323-4.34,4.176,4.176,0,0,0-4.323-4.361" transform="translate(5.824 2.517)"/><path class="b" d="M29.979,8.072a4.736,4.736,0,0,0-3.15-1.192c-2.555,0-4.225,1.461-4.225,4.4A4.026,4.026,0,0,0,26.828,15.6a4.323,4.323,0,0,0,2.862-.94V12.511H26.482v-2.5h5.8v5.859a6.238,6.238,0,0,1-5.474,2.5c-5.186,0-7.145-3.591-7.145-7.087,0-3.785,2.229-7.147,7.164-7.147a6.554,6.554,0,0,1,5.015,2.074Z" transform="translate(11.831 2.488)"/><path class="b" d="M35.83,18.283c-4.3,0-7.262-2.672-7.262-7.05s2.958-7.05,7.262-7.05,7.262,2.67,7.262,7.05-2.958,7.05-7.262,7.05m0-11.412a4.221,4.221,0,0,0-4.323,4.361,4.323,4.323,0,1,0,8.646,0A4.176,4.176,0,0,0,35.83,6.871" transform="translate(17.188 2.517)"/><path class="d" d="M48.867,8.072a4.736,4.736,0,0,0-3.15-1.192c-2.555,0-4.225,1.461-4.225,4.4A4.026,4.026,0,0,0,45.716,15.6a4.323,4.323,0,0,0,2.862-.94V12.511H45.37v-2.5h5.8v5.859a6.238,6.238,0,0,1-5.474,2.5c-5.186,0-7.145-3.591-7.145-7.087,0-3.785,2.228-7.147,7.164-7.147a6.553,6.553,0,0,1,5.015,2.074Z" transform="translate(23.195 2.488)"/><path class="d" d="M54.717,18.283c-4.3,0-7.262-2.672-7.262-7.05s2.958-7.05,7.262-7.05,7.262,2.67,7.262,7.05-2.958,7.05-7.262,7.05m0-11.412a4.221,4.221,0,0,0-4.323,4.361,4.323,4.323,0,1,0,8.646,0,4.176,4.176,0,0,0-4.323-4.361" transform="translate(28.551 2.517)"/><path class="d" d="M68.158,17.833H57.919V4.385h9.97V7.134H60.858V9.727h6.628v2.632H60.858v2.708h7.3Z" transform="translate(34.847 2.639)"/><path class="d" d="M74.134,7.813a4.483,4.483,0,0,0-3.112-1.134c-1.326,0-2.4.557-2.4,1.48,0,1.228,1.172,1.459,2.9,1.614,2.651.229,5.167,1.248,5.167,4.36,0,3-2.766,4.3-5.667,4.323-2.324.018-4.744-.884-5.878-2.768l1.786-1.863a5.344,5.344,0,0,0,4.111,1.9c1.594,0,2.689-.633,2.689-1.594.019-1.134-.884-1.651-2.708-1.807-2.843-.267-5.378-.979-5.34-4.148C65.7,5.508,68.237,4.086,71,4.086a5.917,5.917,0,0,1,5.013,2.076Z" transform="translate(39.194 2.459)"/><path class="e" d="M82.648,17.845V12.524H76.636v5.321h-3V4.4h3V9.776h6.013V4.4h2.958V17.845Z" transform="translate(44.305 2.646)"/><path class="e" d="M93.226,17.833H82.987V4.385h9.97V7.134H85.926V9.727h6.628v2.632H85.926v2.708h7.3Z" transform="translate(49.929 2.639)"/><path class="e" d="M102.788,17.832H99.465l-3.439-4.417h-2.17v4.417h-3V4.386h6.378c3.247,0,4.975,2.17,4.975,4.533-.019,1.747-.538,3.3-3.112,4.227l3.689,4.456ZM93.856,6.96v3.918h3.42A1.866,1.866,0,0,0,99.253,9,1.976,1.976,0,0,0,97.237,6.96Z" transform="translate(54.666 2.639)"/><path class="e" d="M109.8,17.833H99.559V4.385h9.97V7.134H102.5V9.727h6.628v2.632H102.5v2.708h7.3Z" transform="translate(59.9 2.639)"/><path class="f" d="M174.91,26.589H0V0H174.91ZM1.6,24.987H173.308V1.6H1.6Z" transform="translate(0 0.001)"/></g></g></g></svg>