<svg xmlns="http://www.w3.org/2000/svg" width="75.86" height="90" viewBox="0 0 75.86 90"><defs><style>.a{fill:#ff7b00;}.b{fill:#0157ba;}</style></defs><g transform="translate(-850.25 -827.108)"><g transform="translate(857.65 881.4)"><path class="a" d="M580.944,212.934s4.377,5.151,17.253,5.151,18.648-8.194,18.648-8.194,9.953,4.742,11.9,10.045a50.241,50.241,0,0,1,2.376,7.834s-11.435,16.056-36.15,16.056c-17.506,0-30.464-9.7-30.464-9.7S564.077,219.49,580.944,212.934Z" transform="translate(-564.508 -209.891)"/></g><g transform="translate(850.25 827.108)"><g transform="translate(14.725 19.32)"><path class="b" d="M576.142,184.915a1.774,1.774,0,0,1-1.706-1.3c-.069-.055-.147-.1-.227-.16a6.2,6.2,0,0,1-2.713-4.116c-.981-4.077.188-5.869,1.341-6.654a3.489,3.489,0,0,1,3.99.118,1.773,1.773,0,0,1-2.031,2.907,5.232,5.232,0,0,0,.147,2.8,2.786,2.786,0,0,0,1.306,2.045,3.446,3.446,0,0,1,1.634,2.241,1.776,1.776,0,0,1-1.741,2.115Z" transform="translate(-571.128 -172.119)"/></g><g transform="translate(54.768 19.319)"><path class="b" d="M612.984,184.915a1.82,1.82,0,0,1-.341-.033,1.772,1.772,0,0,1-1.4-2.08,3.437,3.437,0,0,1,1.634-2.243,2.783,2.783,0,0,0,1.305-2.045,5.305,5.305,0,0,0,.152-2.784,1.825,1.825,0,0,1-2.422-.475,1.736,1.736,0,0,1,.386-2.446,3.486,3.486,0,0,1,3.99-.118c1.152.785,2.321,2.577,1.343,6.654a6.207,6.207,0,0,1-2.713,4.116c-.081.056-.16.106-.228.159A1.774,1.774,0,0,1,612.984,184.915Z" transform="translate(-611.209 -172.118)"/></g><g transform="translate(18.828)"><path class="b" d="M577.42,176.512a1.775,1.775,0,0,1-1.5-.823,14.511,14.511,0,0,1-1.495-12.368c2.811-8.209,8.89-12.2,18.585-12.2,9.931,0,16.075,4.195,18.788,12.823a14.985,14.985,0,0,1-1.262,11.62,1.707,1.707,0,0,1-1.59.946,1.775,1.775,0,0,1-1.583-1.017c-.286-.609-.574-1.134-.861-1.658-.108-.2-.216-.394-.324-.6a31.268,31.268,0,0,1-15.269-.383c-1.539-.453-2.94-1.015-4.179-1.511-2.76-1.106-4.38-1.7-5.529-1.038-1.041.6-1.74,2.2-2.023,4.634a1.771,1.771,0,0,1-1.364,1.523A1.74,1.74,0,0,1,577.42,176.512Zm29.133-6.912a2.851,2.851,0,0,1,2.105.932,11,11,0,0,0-.241-5.523c-2.218-7.056-7.113-10.341-15.405-10.341-8.1,0-12.94,3.114-15.229,9.8a10.756,10.756,0,0,0-.478,4.839,6.2,6.2,0,0,1,2.133-2.074c2.7-1.549,5.573-.4,8.614.821,1.221.489,2.485,1,3.863,1.4a27.992,27.992,0,0,0,14.032.208A2.813,2.813,0,0,1,606.553,169.6Z" transform="translate(-573.673 -151.122)"/></g><g transform="translate(19.743 28.691)"><path class="b" d="M593.1,204c-8.942,0-16.68-8.282-18.4-19.694a1.773,1.773,0,0,1,3.507-.528c1.454,9.662,7.716,16.675,14.89,16.675s13.436-7.013,14.891-16.675a1.773,1.773,0,0,1,3.506.528C609.785,195.715,602.047,204,593.1,204Z" transform="translate(-574.688 -182.265)"/></g><g transform="translate(0 48.393)"><path class="b" d="M594.53,245.026c-24.422,0-37.22-15.26-37.752-15.909a1.67,1.67,0,0,1-.384-1.179c.848-12.27,10.873-22.314,24.38-24.428l.385-.062a1.921,1.921,0,0,1,2.232,1.438,1.792,1.792,0,0,1-1.564,2.054l-.4.065c-11.494,1.8-20.079,10.164-21.132,20.472a47.533,47.533,0,0,0,34.233,14c20.047,0,31.526-11.46,33.814-13.989-1.047-10.315-9.636-18.688-21.124-20.485h0l-.092-.015-.194-.03a1.823,1.823,0,0,1-1.755-1.917,1.888,1.888,0,0,1,2.084-1.617c.174.014.335.038.507.067h0c.042.006.084.013.126.021,13.492,2.123,23.5,12.162,24.35,24.423a1.67,1.67,0,0,1-.366,1.157C631.365,229.745,618.971,245.026,594.53,245.026Z" transform="translate(-556.389 -203.419)"/></g><g transform="translate(14.365 68.381)"><path class="b" d="M572.6,240.859a1.773,1.773,0,0,1-1.773-1.773V227.122a1.773,1.773,0,1,1,3.545,0v11.965A1.772,1.772,0,0,1,572.6,240.859Z" transform="translate(-570.83 -225.349)"/></g><g transform="translate(59.034 68.381)"><path class="b" d="M617.507,239.515a1.773,1.773,0,0,1-1.774-1.773v-10.62a1.773,1.773,0,0,1,3.547,0v10.62A1.773,1.773,0,0,1,617.507,239.515Z" transform="translate(-615.733 -225.349)"/></g><g transform="translate(36.369 56.534)"><path class="b" d="M594.722,245.817a1.773,1.773,0,0,1-1.773-1.774V214.124a1.773,1.773,0,0,1,3.546,0v29.919A1.773,1.773,0,0,1,594.722,245.817Z" transform="translate(-592.949 -212.351)"/></g></g></g></svg>