<svg xmlns="http://www.w3.org/2000/svg" width="58.813" height="90" viewBox="0 0 58.813 90"><defs><style>.a{fill:#ff7b00;}.b{fill:#0157ba;}</style></defs><g transform="translate(-1628 -831.146)"><g transform="translate(1628 831.146)"><g transform="translate(23.16 4.526)"><path class="a" d="M786.517,548.343a24.487,24.487,0,0,0-5.578,3.91,49.379,49.379,0,0,0-5.53,6.285s10.254,1.05,12.985.263a50.249,50.249,0,0,0,6.2-2.005C794.3,556.73,786.517,548.343,786.517,548.343Z" transform="translate(-775.409 -548.343)"/></g><g transform="translate(45.336 53.482)"><path class="a" d="M799.47,627.811c.065.041,4.726-12.071,5.869-15.356s-.928-9.139-.928-9.139l1.272-6.854,2.2,1.393s3.046,7.026,3.1,7.3-.361,10.868-.361,10.868L804.839,631.8Z" transform="translate(-799.47 -596.462)"/></g><g transform="translate(3.928 52.256)"><path class="a" d="M756.621,599.39a55.094,55.094,0,0,0,2.579,12.228c2.247,6.92,6.63,16.082,6.8,15.974l5.449-3.438s-6.129-11.188-7.413-16.4-3.085-13.262-3.839-12.815S756.621,599.39,756.621,599.39Z" transform="translate(-756.621 -594.921)"/></g><g transform="translate(21.731 26.41)"><path class="b" d="M782.065,586.447a7.668,7.668,0,1,1,7.668-7.669A7.677,7.677,0,0,1,782.065,586.447Zm0-12.245a4.577,4.577,0,1,0,4.576,4.577A4.582,4.582,0,0,0,782.065,574.2Z" transform="translate(-774.396 -571.11)"/></g><g transform="translate(0 50.436)"><path class="b" d="M759.4,632.195a1.548,1.548,0,0,1-1.471-1.07l-5.562-17.158a21.894,21.894,0,0,1,5.67-20.883,1.546,1.546,0,0,1,2.616.825c1.016,5.761,3.342,11.137,6.289,17.943a102.656,102.656,0,0,0,4.647,9.4h.234a1.552,1.552,0,0,1,.829,2.861l-12.428,7.843A1.551,1.551,0,0,1,759.4,632.195Zm-1.119-34.637a18.768,18.768,0,0,0-2.946,15.549l4.921,15.172,8.663-5.467a136.384,136.384,0,0,1-10.638-25.255Z" transform="translate(-751.678 -592.631)"/></g><g transform="translate(38.246 50.437)"><path class="b" d="M803.383,632.2a1.551,1.551,0,0,1-.825-.238l-5.743-3.624a1.546,1.546,0,0,1,1.65-2.615l4.061,2.563,4.949-15.265a18.711,18.711,0,0,0-2.972-15.457,135.116,135.116,0,0,1-11.066,26.007,1.546,1.546,0,1,1-2.684-1.534,102.906,102.906,0,0,0,5.089-10.179c2.947-6.812,5.274-12.19,6.289-17.943a1.546,1.546,0,0,1,2.617-.825,21.87,21.87,0,0,1,5.7,20.789l-5.589,17.252a1.544,1.544,0,0,1-1.471,1.07Z" transform="translate(-790.548 -592.632)"/></g><g transform="translate(5.349)"><path class="b" d="M790.391,624.806H774.528a1.834,1.834,0,0,1-1.586-.9,120.536,120.536,0,0,1-6.179-12.074c-5.01-11.265-8.969-20.166-8.277-31.607a47.235,47.235,0,0,1,7.987-23.31c.008-.013.09-.122.1-.136l.1-.128a47.224,47.224,0,0,1,14.839-13.743,1.871,1.871,0,0,1,1.9,0A47.636,47.636,0,0,1,798.447,556.9a1.807,1.807,0,0,1,.1.162,47.237,47.237,0,0,1,7.886,23.165c.694,11.435-3.263,20.334-8.272,31.6l-1.679-.7,1.677.7a120.7,120.7,0,0,1-6.179,12.074A1.833,1.833,0,0,1,790.391,624.806Zm-14.8-3.556h13.73a116.681,116.681,0,0,0,5.478-10.822v0l.006-.01c5.005-11.255,8.62-19.387,7.978-29.979a43.605,43.605,0,0,0-7.37-21.535c-.036-.052-.068-.105-.1-.158a43.929,43.929,0,0,0-12.86-12.218,43.6,43.6,0,0,0-12.813,12.183c-.008.013-.09.123-.1.134l-.1.129a43.607,43.607,0,0,0-7.32,21.463c-.641,10.6,2.976,18.732,7.983,29.99A117.208,117.208,0,0,0,775.595,621.249Z" transform="translate(-758.408 -542.649)"/></g><g transform="translate(15.832 11.431)"><path class="b" d="M781.3,562.13a43.305,43.305,0,0,1-13.3-2.079,1.546,1.546,0,0,1,.948-2.944,40.622,40.622,0,0,0,23.48.37,1.546,1.546,0,1,1,.855,2.971A43.337,43.337,0,0,1,781.3,562.13Z" transform="translate(-766.925 -557.031)"/></g><g transform="translate(15.561 67.457)"><path class="b" d="M783.625,620.153h-14.3a1.546,1.546,0,1,1,0-3.092h14.3a1.546,1.546,0,1,1,0,3.092Z" transform="translate(-767.782 -617.061)"/></g></g></g></svg>